<?xml version="1.0" standalone="no"?>
<!DOCTYPE svg PUBLIC "-//W3C//DTD SVG 20010904//EN"
 "http://www.w3.org/TR/2001/REC-SVG-20010904/DTD/svg10.dtd">
<svg version="1.0" xmlns="http://www.w3.org/2000/svg"
 width="225.000000pt" height="225.000000pt" viewBox="0 0 225.000000 225.000000"
 preserveAspectRatio="xMidYMid meet">

<g transform="translate(0.000000,225.000000) scale(0.100000,-0.100000)"
fill="#fff" stroke="none">
<path d="M1565 2226 c-19 -28 -9 -58 25 -76 48 -26 80 34 41 78 -24 29 -47 28
-66 -2z"/>
<path d="M2140 2240 c0 -5 -7 -10 -15 -10 -19 0 -35 -31 -35 -68 0 -33 36 -72
67 -72 35 0 73 18 73 35 0 8 5 15 10 15 6 0 10 25 10 55 l0 55 -55 0 c-30 0
-55 -4 -55 -10z"/>
<path d="M1325 2057 c-58 -36 -66 -61 -64 -208 1 -127 1 -130 -24 -149 -14
-11 -30 -20 -36 -20 -6 0 -11 -4 -11 -8 0 -4 -14 -16 -32 -26 -33 -20 -53 -36
-96 -74 -36 -32 -36 -97 1 -134 25 -25 63 -44 80 -40 4 1 7 -1 7 -6 0 -4 -250
-257 -555 -562 -305 -305 -555 -560 -555 -567 0 -7 -4 -13 -10 -13 -5 0 -10
-9 -10 -20 0 -11 -4 -20 -10 -20 -5 0 -10 -20 -10 -45 0 -25 5 -45 10 -45 6 0
10 -6 10 -14 0 -18 68 -86 86 -86 8 0 14 -4 14 -10 0 -5 20 -10 45 -10 25 0
45 5 45 10 0 6 7 10 15 10 9 0 23 6 32 13 9 6 267 261 572 565 306 303 559
552 563 552 5 0 7 -3 6 -7 -4 -17 16 -58 39 -81 38 -38 101 -35 142 6 17 17
31 35 31 41 0 6 3 11 8 11 4 0 16 16 26 35 11 19 23 35 28 35 4 0 8 5 8 11 0
6 9 23 21 37 20 26 20 26 148 23 146 -3 182 8 206 64 19 46 12 87 -23 125 -17
18 -35 40 -62 80 -8 12 -23 31 -33 43 -30 36 -29 60 7 170 43 128 45 164 11
202 -40 43 -83 43 -210 0 -112 -37 -136 -38 -173 -8 -29 24 -56 45 -83 63 -12
8 -31 23 -42 33 -18 18 -69 38 -92 36 -5 0 -19 -6 -30 -12z m84 -114 c13 -10
32 -26 42 -35 11 -10 22 -18 27 -18 6 0 21 -12 91 -72 25 -21 42 -19 173 24
70 23 131 39 135 35 4 -4 -12 -66 -35 -136 -44 -134 -46 -144 -24 -170 7 -9
26 -32 42 -51 17 -19 30 -41 30 -47 0 -7 4 -13 9 -13 11 0 61 -73 61 -89 0
-11 -26 -12 -138 -7 l-137 7 -23 -25 c-12 -15 -22 -29 -22 -31 0 -6 -11 -20
-37 -50 -7 -7 -13 -18 -13 -24 0 -6 -4 -11 -10 -11 -5 0 -10 -6 -10 -12 0 -16
-54 -78 -68 -78 -5 0 -13 12 -16 28 -13 57 -71 227 -81 237 -10 10 -181 68
-237 81 -16 3 -28 11 -28 16 0 14 62 68 78 68 6 0 12 5 12 10 0 6 5 10 11 10
6 0 17 6 24 13 30 26 44 37 50 37 2 0 17 10 31 23 l26 22 -7 138 c-8 149 -5
157 44 120z m-94 -633 l39 -40 -574 -579 c-611 -614 -604 -608 -652 -564 -46
41 -50 36 560 646 317 317 579 577 582 577 3 0 24 -18 45 -40z"/>
<path d="M964 1900 c-40 -15 -36 -82 6 -93 32 -8 73 34 62 64 -10 27 -39 39
-68 29z"/>
<path d="M2100 1741 c-14 -28 -13 -38 11 -60 25 -23 58 -15 70 16 17 47 -57
88 -81 44z"/>
<path d="M1825 1078 c-46 -27 -55 -51 -36 -101 17 -43 91 -52 122 -14 24 29
24 68 -2 101 -22 28 -51 33 -84 14z"/>
</g>
</svg>
